#!OML:ASF H:\Terrain\Walking\May29\JustinRory\Justin.ASF
:FULLY-SPECIFIED
:DEGREES
1249
root 6.80797 14.5458 -17.8582 10.6855 8.08618 0.124773
lowerback 32.6654 -0.936833 -0.962116
upperback 6.42271 -0.66767 6.42594
thorax -9.73813 -0.259041 7.64601
lowerneck -16.0801 -3.62746 -7.00911
upperneck 2.38433 -4.15429 9.44463
head 3.65132 -1.65877 3.72981
rclavicle 1.11319e-014 1.74931e-014
rhumerus -18.8998 -9.86477 -55.6415
rradius 103.407
rwrist -24.2695
rhand -25.0977 46.5903
rfingers 7.12502
rthumb 1.41725 16.6152
lclavicle 1.11319e-014 1.74931e-014
lhumerus 3.77176 9.94582 64.7342
lradius 90.8873
lwrist 15.3733
lhand -16.8168 27.3257
lfingers 7.12502
lthumb 9.41209 57.0955
rfemur -56.396 -16.6021 25.438
rtibia 80.7349
rfoot -31.8714 -9.83748
rtoes -5.04646
lfemur -57.3046 7.65725 -15.5893
ltibia 77.6727
lfoot -29.7395 -7.3747
ltoes -21.848
1250
root 6.75526 14.6433 -17.8247 10.5461 9.17614 -0.203695
lowerback 32.2285 -1.18393 -1.11623
upperback 6.40817 -0.984803 6.82771
thorax -9.54358 -0.40332 8.27922
lowerneck -16.2833 -3.72932 -7.19055
upperneck 2.39493 -4.27314 9.82236
head 3.71183 -1.69488 3.86645
rclavicle -1.43125e-014 -2.78299e-014
rhumerus -20.4619 -9.82869 -56.9608
rradius 104.553
rwrist -24.0742
rhand -24.9123 45.9446
rfingers 7.12502
rthumb 1.5963 15.9708
lclavicle -1.43125e-014 -2.78299e-014
lhumerus 4.85275 9.56233 64.3037
lradius 90.3365
lwrist 15.3786
lhand -17.4083 26.6784
lfingers 7.12502
lthumb 8.84136 56.4732
rfemur -55.3392 -17.2183 26.0106
rtibia 79.4608
rfoot -31.6634 -10.2264
rtoes -5.61005
lfemur -56.581 6.93611 -14.9176
ltibia 76.3841
lfoot -29.2337 -7.84201
ltoes -21.9495
1251
root 6.70811 14.7464 -17.788 10.4301 10.2038 -0.7287
lowerback 31.7684 -1.46557 -1.08049
upperback 6.32581 -1.28199 7.24603
thorax -9.41204 -0.540555 8.8196
lowerneck -16.3199 -3.82078 -7.38113
upperneck 2.46611 -4.39085 10.211
head 3.76622 -1.73318 4.00929
rclavicle -5.40694e-014 -2.38542e-015
rhumerus -22.0107 -9.69251 -58.1243
rradius 105.527
rwrist -23.8875
rhand -24.6527 45.8712
rfingers 7.12502
rthumb 1.847 15.8995
lclavicle -5.40694e-014 -2.38542e-015
lhumerus 5.97944 9.14401 63.5872
lradius 89.6943
lwrist 15.5185
lhand -17.5219 26.5817
lfingers 7.12502
lthumb 8.73174 56.3811
rfemur -54.3142 -17.789 26.8083
rtibia 78.1004
rfoot -31.3342 -10.6488
rtoes -6.29107
lfemur -55.9335 6.44157 -14.1248
ltibia 75.1276
lfoot -28.7564 -8.28131
ltoes -21.9989
1252
root 6.66123 14.8561 -17.7518 10.3076 11.1334 -1.2895
lowerback 31.1717 -1.73607 -1.1681
upperback 6.38746 -1.61696 7.68804
thorax -9.051 -0.705376 9.45477
lowerneck -16.558 -3.83803 -7.47732
upperneck 2.60452 -4.41176 10.478
head 3.85854 -1.72218 4.10589
rclavicle 1.90833e-014 -2.38542e-015
rhumerus -23.0826 -9.78344 -59.4423
rradius 106.234
rwrist -23.1957
rhand -24.2819 46.0071
rfingers 7.12502
rthumb 2.20515 16.0388
lclavicle 1.90833e-014 -2.38542e-015
lhumerus 7.39741 9.1145 63.2292
lradius 89.0764
lwrist 15.2838
lhand -17.3115 27.4211
lfingers 7.12502
lthumb 8.93471 57.2119
rfemur -53.32 -18.1259 27.6007
rtibia 76.704
rfoot -30.8309 -11.1273
rtoes -6.95576
lfemur -55.294 6.01383 -13.2931
ltibia 73.8796
lfoot -28.184 -8.84269
ltoes -21.2326
1253
root 6.61297 14.9529 -17.7178 10.1808 12.0465 -2.00098
lowerback 30.5585 -1.96886 -1.23137
upperback 6.50132 -1.8878 8.26219
thorax -8.62938 -0.846574 10.1948
lowerneck -16.8439 -3.82404 -7.66505
upperneck 2.58449 -4.34881 10.6369
head 3.90043 -1.67741 4.19105
rclavicle 5.00937e-014 8.74653e-015
rhumerus -23.9486 -9.80666 -60.4825
rradius 106.905
rwrist -22.5131
rhand -24.2128 46.4289
rfingers 7.12502
rthumb 2.2718 16.4613
lclavicle 5.00937e-014 8.74653e-015
lhumerus 8.70813 9.31877 63.2976
lradius 88.5539
lwrist 14.7723
lhand -17.0438 27.7826
lfingers 7.12502
lthumb 9.19309 57.5622
rfemur -52.4214 -18.365 28.5401
rtibia 75.321
rfoot -30.4708 -11.3889
rtoes -6.51942
lfemur -54.7699 5.53523 -12.2641
ltibia 72.6478
lfoot -27.6239 -9.2701
ltoes -21.0225
1254
root 6.57408 15.0476 -17.6876 10.1884 13.0173 -2.43868
lowerback 30.1787 -2.18645 -1.37508
upperback 6.29104 -2.14267 8.81936
thorax -8.6556 -0.954275 10.9862
lowerneck -16.5001 -3.85156 -8.04221
upperneck 2.37229 -4.32632 10.781
head 3.79221 -1.67603 4.30257
rclavicle 1.82882e-014 2.38542e-014
rhumerus -25.4783 -9.71328 -61.0029
rradius 107.762
rwrist -22.1254
rhand -23.8508 46.9019
rfingers 7.12502
rthumb 2.62147 16.9383
lclavicle 1.82882e-014 2.38542e-014
lhumerus 9.16822 9.33145 63.1618
lradius 88.3475
lwrist 14.7659
lhand -16.8964 27.2977
lfingers 7.12502
lthumb 9.33527 57.071
rfemur -51.7564 -18.9633 29.2196
rtibia 74.0079
rfoot -30.1608 -11.2978
rtoes -5.14996
lfemur -54.3876 4.83104 -11.5853
ltibia 71.4345
lfoot -27.1082 -9.33166
ltoes -21.5341
